<svg enable-background="new 0 0 741 279" viewBox="0 0 741 279" xmlns="http://www.w3.org/2000/svg" xmlns:xlink="http://www.w3.org/1999/xlink"><clipPath id="a"><path d="m519.4 138.5c-41.3-1.5-59.7-42.4-91.4-42.4-30.3 0-59.7 39.5-92.6 39.5s-54-41.3-93.7-39.8c-41.5 1.5-58.1 42.6-100.4 42.6-12 0-34.1 2-.3 4.7 44.2 3.6 61.6 38.3 100.1 40 34.1 1.5 61.7-38 94.5-38 32.9 0 61.7 33.6 94 32.5 22.5-.8 48.6-30.9 89.8-34.1 38.9-3.1 40.5-3.5 0-5z"/></clipPath><clipPath id="b"><path d="m731.9 132c-52-2-150.5 5.8-208.4 7.3-122.1-2.2-148.3-90.2-197.9-90-58.4.3-74.5 90.6-197.9 90.4-52-2-52 4.7 0 2.8 125 5.8 142.5 80.3 198.4 81.5 53.6 1.1 69.1-80.2 198-82 51 .2 305.4-12.4 207.8-10z"/></clipPath><g fill="#009ade"><g clip-path="url(#a)"><path d="m-56.5 31.7h1.2v226.1h-1.2z"/><path d="m-51.1 31.7h1.2v226.1h-1.2z"/><path d="m-45.8 31.7h1.2v226.1h-1.2z"/><path d="m-40.4 31.7h1.2v226.1h-1.2z"/><path d="m-35 31.7h1.2v226.1h-1.2z"/><path d="m-29.7 31.7h1.2v226.1h-1.2z"/><path d="m-24.3 31.7h1.2v226.1h-1.2z"/><path d="m-18.9 31.7h1.2v226.1h-1.2z"/><path d="m-13.6 31.7h1.2v226.1h-1.2z"/><path d="m-8.2 31.7h1.2v226.1h-1.2z"/><path d="m-2.8 31.7h1.2v226.1h-1.2z"/><path d="m2.5 31.7h1.2v226.1h-1.2z"/><path d="m7.9 31.7h1.2v226.1h-1.2z"/><path d="m13.3 31.7h1.2v226.1h-1.2z"/><path d="m18.6 31.7h1.2v226.1h-1.2z"/><path d="m24 31.7h1.2v226.1h-1.2z"/><path d="m29.4 31.7h1.2v226.1h-1.2z"/><path d="m34.7 31.7h1.2v226.1h-1.2z"/><path d="m40.1 31.7h1.2v226.1h-1.2z"/><path d="m45.5 31.7h1.2v226.1h-1.2z"/><path d="m50.9 31.7h1.2v226.1h-1.2z"/><path d="m56.2 31.7h1.2v226.1h-1.2z"/><path d="m61.6 31.7h1.2v226.1h-1.2z"/><path d="m67 31.7h1.2v226.1h-1.2z"/><path d="m72.3 31.7h1.2v226.1h-1.2z"/><path d="m77.7 31.7h1.2v226.1h-1.2z"/><path d="m83.1 31.7h1.2v226.1h-1.2z"/><path d="m88.4 31.7h1.2v226.1h-1.2z"/><path d="m93.8 31.7h1.2v226.1h-1.2z"/><path d="m99.2 31.7h1.2v226.1h-1.2z"/><path d="m104.5 31.7h1.2v226.1h-1.2z"/><path d="m109.9 31.7h1.2v226.1h-1.2z"/><path d="m115.3 31.7h1.2v226.1h-1.2z"/><path d="m120.6 31.7h1.2v226.1h-1.2z"/><path d="m126 31.7h1.2v226.1h-1.2z"/><path d="m131.4 31.7h1.2v226.1h-1.2z"/><path d="m136.7 31.7h1.2v226.1h-1.2z"/><path d="m142.1 31.7h1.2v226.1h-1.2z"/><path d="m147.5 31.7h1.2v226.1h-1.2z"/><path d="m152.8 31.7h1.2v226.1h-1.2z"/><path d="m158.2 31.7h1.2v226.1h-1.2z"/><path d="m163.6 31.7h1.2v226.1h-1.2z"/><path d="m168.9 31.7h1.2v226.1h-1.2z"/><path d="m174.3 31.7h1.2v226.1h-1.2z"/><path d="m179.7 31.7h1.2v226.1h-1.2z"/><path d="m185.1 31.7h1.2v226.1h-1.2z"/><path d="m190.4 31.7h1.2v226.1h-1.2z"/><path d="m195.8 31.7h1.2v226.1h-1.2z"/><path d="m201.2 31.7h1.2v226.1h-1.2z"/><path d="m206.5 31.7h1.2v226.1h-1.2z"/><path d="m211.9 31.7h1.2v226.1h-1.2z"/><path d="m217.3 31.7h1.2v226.1h-1.2z"/><path d="m222.6 31.7h1.2v226.1h-1.2z"/><path d="m228 31.7h1.2v226.1h-1.2z"/><path d="m233.4 31.7h1.2v226.1h-1.2z"/><path d="m238.7 31.7h1.2v226.1h-1.2z"/><path d="m244.1 31.7h1.2v226.1h-1.2z"/><path d="m249.5 31.7h1.2v226.1h-1.2z"/><path d="m254.8 31.7h1.2v226.1h-1.2z"/><path d="m260.2 31.7h1.2v226.1h-1.2z"/><path d="m265.6 31.7h1.2v226.1h-1.2z"/><path d="m270.9 31.7h1.2v226.1h-1.2z"/><path d="m276.3 31.7h1.2v226.1h-1.2z"/><path d="m281.7 31.7h1.2v226.1h-1.2z"/><path d="m287 31.7h1.2v226.1h-1.2z"/><path d="m292.4 31.7h1.2v226.1h-1.2z"/><path d="m297.8 31.7h1.2v226.1h-1.2z"/><path d="m303.1 31.7h1.2v226.1h-1.2z"/><path d="m308.5 31.7h1.2v226.1h-1.2z"/><path d="m313.9 31.7h1.2v226.1h-1.2z"/><path d="m319.2 31.7h1.2v226.1h-1.2z"/><path d="m324.6 31.7h1.2v226.1h-1.2z"/><path d="m330 31.7h1.2v226.1h-1.2z"/><path d="m335.4 31.7h1.2v226.1h-1.2z"/><path d="m340.7 31.7h1.2v226.1h-1.2z"/><path d="m346.1 31.7h1.2v226.1h-1.2z"/><path d="m351.5 31.7h1.2v226.1h-1.2z"/><path d="m356.8 31.7h1.2v226.1h-1.2z"/><path d="m362.2 31.7h1.2v226.1h-1.2z"/><path d="m367.6 31.7h1.2v226.1h-1.2z"/><path d="m372.9 31.7h1.2v226.1h-1.2z"/><path d="m378.3 31.7h1.2v226.1h-1.2z"/><path d="m383.7 31.7h1.2v226.1h-1.2z"/><path d="m389 31.7h1.2v226.1h-1.2z"/><path d="m394.4 31.7h1.2v226.1h-1.2z"/><path d="m399.8 31.7h1.2v226.1h-1.2z"/><path d="m405.1 31.7h1.2v226.1h-1.2z"/><path d="m410.5 31.7h1.2v226.1h-1.2z"/><path d="m415.9 31.7h1.2v226.1h-1.2z"/><path d="m421.2 31.7h1.2v226.1h-1.2z"/><path d="m426.6 31.7h1.2v226.1h-1.2z"/><path d="m432 31.7h1.2v226.1h-1.2z"/><path d="m437.3 31.7h1.2v226.1h-1.2z"/><path d="m442.7 31.7h1.2v226.1h-1.2z"/><path d="m448.1 31.7h1.2v226.1h-1.2z"/><path d="m453.4 31.7h1.2v226.1h-1.2z"/><path d="m458.8 31.7h1.2v226.1h-1.2z"/><path d="m464.2 31.7h1.2v226.1h-1.2z"/><path d="m469.6 31.7h1.2v226.1h-1.2z"/><path d="m474.9 31.7h1.2v226.1h-1.2z"/><path d="m480.3 31.7h1.2v226.1h-1.2z"/><path d="m485.7 31.7h1.2v226.1h-1.2z"/><path d="m491 31.7h1.2v226.1h-1.2z"/><path d="m496.4 31.7h1.2v226.1h-1.2z"/><path d="m501.8 31.7h1.2v226.1h-1.2z"/><path d="m507.1 31.7h1.2v226.1h-1.2z"/><path d="m512.5 31.7h1.2v226.1h-1.2z"/><path d="m517.9 31.7h1.2v226.1h-1.2z"/><path d="m523.2 31.7h1.2v226.1h-1.2z"/><path d="m528.6 31.7h1.2v226.1h-1.2z"/><path d="m534 31.7h1.2v226.1h-1.2z"/><path d="m539.3 31.7h1.2v226.1h-1.2z"/><path d="m544.7 31.7h1.2v226.1h-1.2z"/><path d="m550.1 31.7h1.2v226.1h-1.2z"/><path d="m555.4 31.7h1.2v226.1h-1.2z"/><path d="m560.8 31.7h1.2v226.1h-1.2z"/><path d="m566.2 31.7h1.2v226.1h-1.2z"/><path d="m571.5 31.7h1.2v226.1h-1.2z"/><path d="m576.9 31.7h1.2v226.1h-1.2z"/><path d="m582.3 31.7h1.2v226.1h-1.2z"/><path d="m587.6 31.7h1.2v226.1h-1.2z"/><path d="m593 31.7h1.2v226.1h-1.2z"/><path d="m598.4 31.7h1.2v226.1h-1.2z"/><path d="m603.7 31.7h1.2v226.1h-1.2z"/><path d="m609.1 31.7h1.2v226.1h-1.2z"/><path d="m614.5 31.7h1.2v226.1h-1.2z"/><path d="m619.9 31.7h1.2v226.1h-1.2z"/><path d="m625.2 31.7h1.2v226.1h-1.2z"/><path d="m630.6 31.7h1.2v226.1h-1.2z"/><path d="m636 31.7h1.2v226.1h-1.2z"/><path d="m641.3 31.7h1.2v226.1h-1.2z"/><path d="m646.7 31.7h1.2v226.1h-1.2z"/><path d="m652.1 31.7h1.2v226.1h-1.2z"/><path d="m657.4 31.7h1.2v226.1h-1.2z"/><path d="m662.8 31.7h1.2v226.1h-1.2z"/><path d="m668.2 31.7h1.2v226.1h-1.2z"/><path d="m673.5 31.7h1.2v226.1h-1.2z"/><path d="m678.9 31.7h1.2v226.1h-1.2z"/></g><g clip-path="url(#b)"><path d="m-37.1 17h1.2v226.1h-1.2z"/><path d="m-31.7 17h1.2v226.1h-1.2z"/><path d="m-26.3 17h1.2v226.1h-1.2z"/><path d="m-21 17h1.2v226.1h-1.2z"/><path d="m-15.6 17h1.2v226.1h-1.2z"/><path d="m-10.2 17h1.2v226.1h-1.2z"/><path d="m-4.9 17h1.2v226.1h-1.2z"/><path d="m.5 17h1.2v226.1h-1.2z"/><path d="m5.9 17h1.2v226.1h-1.2z"/><path d="m11.2 17h1.2v226.1h-1.2z"/><path d="m16.6 17h1.2v226.1h-1.2z"/><path d="m22 17h1.2v226.1h-1.2z"/><path d="m27.3 17h1.2v226.1h-1.2z"/><path d="m32.7 17h1.2v226.1h-1.2z"/><path d="m38.1 17h1.2v226.1h-1.2z"/><path d="m43.4 17h1.2v226.1h-1.2z"/><path d="m48.8 17h1.2v226.1h-1.2z"/><path d="m54.2 17h1.2v226.1h-1.2z"/><path d="m59.5 17h1.2v226.1h-1.2z"/><path d="m64.9 17h1.2v226.1h-1.2z"/><path d="m70.3 17h1.2v226.1h-1.2z"/><path d="m75.6 17h1.2v226.1h-1.2z"/><path d="m81 17h1.2v226.1h-1.2z"/><path d="m86.4 17h1.2v226.1h-1.2z"/><path d="m91.8 17h1.2v226.1h-1.2z"/><path d="m97.1 17h1.2v226.1h-1.2z"/><path d="m102.5 17h1.2v226.1h-1.2z"/><path d="m107.9 17h1.2v226.1h-1.2z"/><path d="m113.2 17h1.2v226.1h-1.2z"/><path d="m118.6 17h1.2v226.1h-1.2z"/><path d="m124 17h1.2v226.1h-1.2z"/><path d="m129.3 17h1.2v226.1h-1.2z"/><path d="m134.7 17h1.2v226.1h-1.2z"/><path d="m140.1 17h1.2v226.1h-1.2z"/><path d="m145.4 17h1.2v226.1h-1.2z"/><path d="m150.8 17h1.2v226.1h-1.2z"/><path d="m156.2 17h1.2v226.1h-1.2z"/><path d="m161.5 17h1.2v226.1h-1.2z"/><path d="m166.9 17h1.2v226.1h-1.2z"/><path d="m172.3 17h1.2v226.1h-1.2z"/><path d="m177.6 17h1.2v226.1h-1.2z"/><path d="m183 17h1.2v226.1h-1.2z"/><path d="m188.4 17h1.2v226.1h-1.2z"/><path d="m193.7 17h1.2v226.1h-1.2z"/><path d="m199.1 17h1.2v226.1h-1.2z"/><path d="m204.5 17h1.2v226.1h-1.2z"/><path d="m209.8 17h1.2v226.1h-1.2z"/><path d="m215.2 17h1.2v226.1h-1.2z"/><path d="m220.6 17h1.2v226.1h-1.2z"/><path d="m226 17h1.2v226.1h-1.2z"/><path d="m231.3 17h1.2v226.1h-1.2z"/><path d="m236.7 17h1.2v226.1h-1.2z"/><path d="m242.1 17h1.2v226.1h-1.2z"/><path d="m247.4 17h1.2v226.1h-1.2z"/><path d="m252.8 17h1.2v226.1h-1.2z"/><path d="m258.2 17h1.2v226.1h-1.2z"/><path d="m263.5 17h1.2v226.1h-1.2z"/><path d="m268.9 17h1.2v226.1h-1.2z"/><path d="m274.3 17h1.2v226.1h-1.2z"/><path d="m279.6 17h1.2v226.1h-1.2z"/><path d="m285 17h1.2v226.1h-1.2z"/><path d="m290.4 17h1.2v226.1h-1.2z"/><path d="m295.7 17h1.2v226.1h-1.2z"/><path d="m301.1 17h1.2v226.1h-1.2z"/><path d="m306.5 17h1.2v226.1h-1.2z"/><path d="m311.8 17h1.2v226.1h-1.2z"/><path d="m317.2 17h1.2v226.1h-1.2z"/><path d="m322.6 17h1.2v226.1h-1.2z"/><path d="m327.9 17h1.2v226.1h-1.2z"/><path d="m333.3 17h1.2v226.1h-1.2z"/><path d="m338.7 17h1.2v226.1h-1.2z"/><path d="m344 17h1.2v226.1h-1.2z"/><path d="m349.4 17h1.2v226.1h-1.2z"/><path d="m354.8 17h1.2v226.1h-1.2z"/><path d="m360.1 17h1.2v226.1h-1.2z"/><path d="m365.5 17h1.2v226.1h-1.2z"/><path d="m370.9 17h1.2v226.1h-1.2z"/><path d="m376.3 17h1.2v226.1h-1.2z"/><path d="m381.6 17h1.2v226.1h-1.2z"/><path d="m387 17h1.2v226.1h-1.2z"/><path d="m392.4 17h1.2v226.1h-1.2z"/><path d="m397.7 17h1.2v226.1h-1.2z"/><path d="m403.1 17h1.2v226.1h-1.2z"/><path d="m408.5 17h1.2v226.1h-1.2z"/><path d="m413.8 17h1.2v226.1h-1.2z"/><path d="m419.2 17h1.2v226.1h-1.2z"/><path d="m424.6 17h1.2v226.1h-1.2z"/><path d="m429.9 17h1.2v226.1h-1.2z"/><path d="m435.3 17h1.2v226.1h-1.2z"/><path d="m440.7 17h1.2v226.1h-1.2z"/><path d="m446 17h1.2v226.1h-1.2z"/><path d="m451.4 17h1.2v226.1h-1.2z"/><path d="m456.8 17h1.2v226.1h-1.2z"/><path d="m462.1 17h1.2v226.1h-1.2z"/><path d="m467.5 17h1.2v226.1h-1.2z"/><path d="m472.9 17h1.2v226.1h-1.2z"/><path d="m478.2 17h1.2v226.1h-1.2z"/><path d="m483.6 17h1.2v226.1h-1.2z"/><path d="m489 17h1.2v226.1h-1.2z"/><path d="m494.3 17h1.2v226.1h-1.2z"/><path d="m499.7 17h1.2v226.1h-1.2z"/><path d="m505.1 17h1.2v226.1h-1.2z"/><path d="m510.5 17h1.2v226.1h-1.2z"/><path d="m515.8 17h1.2v226.1h-1.2z"/><path d="m521.2 17h1.2v226.1h-1.2z"/><path d="m526.6 17h1.2v226.1h-1.2z"/><path d="m531.9 17h1.2v226.1h-1.2z"/><path d="m537.3 17h1.2v226.1h-1.2z"/><path d="m542.7 17h1.2v226.1h-1.2z"/><path d="m548 17h1.2v226.1h-1.2z"/><path d="m553.4 17h1.2v226.1h-1.2z"/><path d="m558.8 17h1.2v226.1h-1.2z"/><path d="m564.1 17h1.2v226.1h-1.2z"/><path d="m569.5 17h1.2v226.1h-1.2z"/><path d="m574.9 17h1.2v226.1h-1.2z"/><path d="m580.2 17h1.2v226.1h-1.2z"/><path d="m585.6 17h1.2v226.1h-1.2z"/><path d="m591 17h1.2v226.1h-1.2z"/><path d="m596.3 17h1.2v226.1h-1.2z"/><path d="m601.7 17h1.2v226.1h-1.2z"/><path d="m607.1 17h1.2v226.1h-1.2z"/><path d="m612.4 17h1.2v226.1h-1.2z"/><path d="m617.8 17h1.2v226.1h-1.2z"/><path d="m623.2 17h1.2v226.1h-1.2z"/><path d="m628.5 17h1.2v226.1h-1.2z"/><path d="m633.9 17h1.2v226.1h-1.2z"/><path d="m639.3 17h1.2v226.1h-1.2z"/><path d="m644.6 17h1.2v226.1h-1.2z"/><path d="m650 17h1.2v226.1h-1.2z"/><path d="m655.4 17h1.2v226.1h-1.2z"/><path d="m660.8 17h1.2v226.1h-1.2z"/><path d="m666.1 17h1.2v226.1h-1.2z"/><path d="m671.5 17h1.2v226.1h-1.2z"/><path d="m676.9 17h1.2v226.1h-1.2z"/><path d="m682.2 17h1.2v226.1h-1.2z"/><path d="m687.6 17h1.2v226.1h-1.2z"/><path d="m693 17h1.2v226.1h-1.2z"/><path d="m698.3 17h1.2v226.1h-1.2z"/></g></g></svg>